<?xml version="1.0" encoding="utf-8"?>
<!-- Generator: Adobe Illustrator 23.0.0, SVG Export Plug-In . SVG Version: 6.00 Build 0)  -->
<svg version="1.1" id="Layer_1" xmlns="http://www.w3.org/2000/svg" xmlns:xlink="http://www.w3.org/1999/xlink" x="0px" y="0px"
	 viewBox="0 0 379.3 395.6" style="enable-background:new 0 0 379.3 395.6;" xml:space="preserve">
<style type="text/css">
	.st0{fill:#555555;}
	.st1{fill:#FFFFFF;}
	.st2{fill:#FF00FF;}
</style>
<path class="st0" d="M375.5,372.3c-16,2.6-31.6,6.9-47.4,10.4c-7.1,1.6-14.4,2.1-21.5,3.4c-4.2,0.8-8.5,2.3-12.8,2.9
	c1.3-0.4,2.5-0.8,3.3-1.1c5.5-2.1,11.3-3.6,17-5.3c9.3-2.8,19.2-4.1,27.4-9.6c2.3-1.5,1.7-6-1.5-5.6c-9.3,1-18.8,2.2-28.1,3.8
	c-10.4,1.8-20.5,4.9-30.8,6.8c-1.4,0.3-2.7,0.5-4.1,0.8c6.4-1.8,12.8-3.7,19.1-5.9c3.1-1.1,8.7-2.6,8-6.9c-0.2-1.3-1.7-2.3-2.9-2.2
	c-10.4,0.3-20.5,3.3-30.7,4.8c-5.2,0.8-10.4,1.5-15.6,2.3c1.3-0.7,2.3-1.5,2.9-2.5c1-1.8-0.2-4.8-2.6-4.6
	c-21.9,2.5-43.4,6.7-64.9,11.3c2.8-1.3,5.3-2.9,7.6-4.9c2-1.8,0.4-5.2-2.1-5.2c-10.1,0.1-20.3,2.2-30.3,3.3
	c-11.4,1.2-22.7,3.2-33.9,5.6c-3.9,0.8-7.8,1.6-11.8,2.3c4.2-1.3,8.4-2.6,12.5-4c3.8-1.2,2.2-6.5-1.6-5.9c-8.6,1.5-17.4,2-26.1,3.3
	c-9.2,1.5-18.2,4.3-27.3,6.4c-2.5,0.6-5,1.1-7.5,1.7c6.2-2,12.4-4.2,18.3-7.1c2.7-1.3,1.4-5.8-1.5-5.6c-6.1,0.3-11.9,2.4-17.8,3.7
	c-6.5,1.4-12.9,2.7-19.3,4.4c0.2-1.6-0.8-3.4-2.9-3.3c-8,0.4-16.6,3-24.2,5.5c-6.7,2.2-14.8,3.1-20.4,7.5c-1.8,1.4-0.8,4.6,1.3,5.1
	c4.3,0.9,8.4-0.6,12.5-1.8c7.2-2,14.8-3.3,22.2-4.5c1-0.2,2.1-0.3,3.1-0.5c-2.5,0.9-5,1.8-7.6,2.6c-4.4,1.4-8.8,2.4-12.8,4.8
	c-1.8,1-2.2,4.3,0,5.2c6.1,2.6,12.6-0.7,18.5-2.8c9.7-3.4,20.8-5,30.9-7.3c5.6-1.2,11.1-2.6,16.7-3.9c-9.4,2.9-18.7,6-27.8,9.6
	c-3,1.2-2.9,6.1,0.8,6c5-0.2,9.7-1.3,14.5-2.8c5.7-1.8,11.2-3.3,17.1-4.6c11.6-2.5,23.2-5,35-6.9c12.3-2,24.4-4.9,36.9-6.4
	c5.3-0.7,10.6-1.4,15.9-2c-0.3,0.1-0.7,0.2-1,0.2c-6.6,1.2-13,3.2-19.6,4.5c-5.8,1.1-11.8,3.9-17.5,5.8c-5.3,1.8-11.1,2.6-16,5.4
	c-3.2,1.8-0.9,6.1,2.3,5.5c29.4-5.1,58.3-12.3,87.6-17.9c-6,1.6-12,3.2-17.8,5.2c-3.1,1.1-6.2,2.2-9.3,3.3c-5.5,1.1-10.9,2.4-15.5,5
	c-3,1.7-1,6.3,2.3,5.5c5.3-1.3,10.4-3,15.4-4.9c3.9-0.7,7.9-1.3,11.4-2.3c11.2-2.9,22.5-5.5,33.9-7.4c10.8-1.8,21.3-4,32.2-5.5
	c0.3,0,0.7-0.1,1-0.2c-15.4,4.4-30.5,9.3-45.7,14.4c-2.3,0.8-3.2,4.3-0.7,5.5c4.6,2.2,12.5-1.3,17.1-2.5c11.3-2.8,22.8-4.7,34.2-6.8
	c10.9-2,21.7-4.4,32.5-6.6c-5.4,1.8-11,3.3-16.3,5.4c-3,1.2-6.5,1.8-8.6,4.4c-1.5,1.9-0.9,4.2,1.3,5.1c5.7,2.3,11.6,1.4,17.4,0
	c8.9-2.2,18-3.6,27.1-4.7c8-1,16-3.6,23.8-5.5c8.8-2.1,17.7-4.1,26.7-5.5C380.9,377.6,379.3,371.7,375.5,372.3z"/>
<g>
	<g>
		<path class="st1" d="M83.1,45.4c-7.5,0.9-11.7,8.3-16.7,13.3c-8,8-16.3,15.7-23.9,24.1c-7.5,8.3-12.1,17.9-17.6,27.6
			c-2.8,4.9-6.8,9-9.3,13.9c-1.5,3-4.7,8.4-7.3,10.6c-1.4,1.2,0.6,3.1,2,2c4.5-3.8,6.6-10.1,10.2-14.8c6.6-8.6,11.1-18.5,16.5-27.8
			c5.5-9.5,14.8-17.5,22.6-25.1c3.5-3.4,7-6.8,10.5-10.3c3.8-3.8,7.1-10,12.9-10.7C84.8,48,84.9,45.2,83.1,45.4z"/>
		<path class="st1" d="M105.7,31.9c-9.6,8.5-17.5,18.7-26.4,27.8c-9.5,9.7-18.3,20-26.7,30.7c-7.5,9.6-14.8,19.3-21.6,29.4
			c-7.6,11.3-13.9,23.4-21.5,34.7c-1,1.5,1.4,2.9,2.4,1.4c6.7-10.1,12.4-20.6,18.9-30.8c7.3-11.4,15.5-22.2,23.8-32.9
			c8.3-10.7,17.1-21.1,26.7-30.7c9-9.1,16.8-19.3,26.4-27.8C109.1,32.7,107.1,30.7,105.7,31.9z"/>
		<path class="st1" d="M129.4,24.9c-11.6,11.8-21.1,25.4-31,38.6C86.8,78.9,74,93.3,61.4,108c-11.2,13.1-22.1,26.3-31.3,40.9
			c-4.4,6.9-8.3,13.9-12.2,21.1c-2.3,4.2-5.5,8.3-7.1,12.9c-0.6,1.7,2.1,2.4,2.7,0.7c1.7-5,5.5-9.7,8-14.4c3.9-7.1,8-14.1,12.3-20.9
			c9.6-15.2,21.4-28.7,33.1-42.3c11-12.8,22.1-25.5,32.3-39c10.4-13.6,20.2-27.8,32.2-40.1C132.6,25.6,130.7,23.6,129.4,24.9z"/>
		<path class="st1" d="M148.9,20.7c-5.6,5.9-9.9,12.8-14.1,19.8c-5,8.3-12.9,15.5-19.7,22.4c-14,14.3-26.7,29.8-39.4,45.3
			c-12.2,14.9-24.8,29.3-35.8,45.1c-5.2,7.5-10.1,15.2-15.1,23c-4,6.3-10.1,12-12.6,19.1c-0.6,1.7,2.1,2.4,2.7,0.7
			c2.3-6.6,8.5-12.5,12.3-18.5c4.9-7.7,9.9-15.4,15.1-23c11.2-16.4,24.5-31.2,37-46.5c12.1-14.8,24.3-29.6,37.8-43.2
			c6-6.1,12-12.3,17.2-19.1c5.8-7.6,9.9-16.1,16.6-23.1C152.1,21.4,150.1,19.4,148.9,20.7z"/>
		<path class="st1" d="M76.8,136c-8.2,3.6-14.6,13.1-20.8,19.3c-7.4,7.4-15.4,14.4-21.8,22.7c-3.1,4-5.8,8.4-8.5,12.7
			c-2.1,3.4-6,8.1-6.7,11.9c-0.7,3.6-4.5,7.4-4.3,11.2c0.1,1,1.1,1.8,2.1,1.2L17,215c0.7-0.4,0.8-1.1,0.5-1.7c0.3-3,3.3-7,4.2-9.9
			c2.7-8.3,9.8-17,14.9-24c6-8.1,14.2-15,21.4-22.1l9.4-9.4c3.5-3.5,6.3-7.5,10.8-9.5C79.9,137.7,78.4,135.3,76.8,136z"/>
		<path class="st1" d="M61.2,171c-16.5,16.9-26.5,37.8-39.2,57.3c-1,1.5,1.4,2.9,2.4,1.4C37,210.4,46.8,189.7,63.2,173
			C64.4,171.7,62.5,169.8,61.2,171z"/>
		<path class="st1" d="M56.8,200.6c-2.3,3.9-6,6.5-8.1,10.4c-2.3,4.3-5.1,8.3-7.5,12.5c-4.6,8-10.4,15.4-12.4,24.7
			c-0.4,1.7,2.3,2.5,2.7,0.7c1.9-9.1,7.8-16,12.1-24c2.3-4.3,5.1-8.3,7.5-12.5c2.2-3.9,5.8-6.6,8.1-10.4
			C60.2,200.4,57.7,199,56.8,200.6z"/>
		<path class="st1" d="M58.2,224.2c-4.3,8.5-8.6,17.4-13.6,25.4c-4.3,6.9-9.8,12.7-11.6,20.9c-0.4,1.8,2.3,2.5,2.7,0.8
			c1.9-8.5,7.9-14.8,12.4-21.9c4.7-7.4,8.5-15.8,12.5-23.7C61.4,224,59,222.6,58.2,224.2z"/>
		<path class="st1" d="M65.4,246.2c-4.7,4.9-8.1,10.5-11.5,16.3c-2,3.4-4,6.7-6,10.1c-0.9,1.6-4.1,8.8-5.9,9.6
			c-1.6,0.7-0.2,3.1,1.4,2.4c1.7-0.7,2.3-1.8,3-3.4c1.8-3.9,4-7.6,6.2-11.3c4.4-7.5,8.7-15.3,14.7-21.7
			C68.6,246.9,66.6,244.9,65.4,246.2z"/>
		<path class="st1" d="M77.5,258.3c-0.5,3.5-4.5,7.5-6.6,10.1c-2.5,3.1-4.7,6.4-6.8,9.8c-3.2,5.2-8,11.9-8.8,18.4
			c-0.1,0.2-0.2,0.4-0.2,0.6v1c0,1.8,2.8,1.8,2.8,0c0-8,7.9-18.3,12.3-24.6c3.4-4.9,9.1-9.3,9.9-15.4
			C80.5,256.5,77.7,256.6,77.5,258.3z"/>
		<path class="st1" d="M93,274.3c-7.9,11.1-16,22.4-21,35.1c-0.7,1.7,2,2.4,2.7,0.7c4.9-12.5,13-23.6,20.7-34.5
			C96.5,274.3,94,272.9,93,274.3z"/>
		<path class="st1" d="M101.4,284c-4.1,7.2-7,15.1-11.1,22.3c-3.6,6.2-6.7,13-7.1,20.2c-0.1,1.8,2.7,1.8,2.8,0
			c0.5-8.4,5.1-15.5,8.9-22.7c3.2-6,5.6-12.4,9-18.3C104.7,283.9,102.3,282.5,101.4,284z"/>
		<path class="st1" d="M119.5,293.8c-1.6,3.1-3.8,5.4-5.6,8.4c-1.7,2.9-2.6,6.6-4.2,9.7c-1.8,3.6-4.4,6.8-6.2,10.4
			c-1,2-1.2,4.2-2.2,6.3c-0.8,1.6,1.6,3,2.4,1.4c2.7-5.7,4.8-11.3,8.4-16.7c1.5-2.3,2.5-5.2,3.5-7.7c1.5-3.7,4.5-6.8,6.3-10.4
			C122.7,293.6,120.3,292.2,119.5,293.8z"/>
		<path class="st1" d="M138.8,296.9c-1,4.5-2.7,8.4-5,12.3c-1.8,3.2-5.1,6.5-6.2,10c-1.5,4.7-2.9,9.3-5.4,13.6
			c-0.9,1.6-1.8,3.4-2.4,5.2c-0.3,0.2-0.6,0.6-0.6,1.1v1.4c0,1.5,2.5,1.9,2.7,0.4c1.1-6.4,5.8-12.7,7.7-19c1.5-4.7,5.2-8.9,7.6-13.2
			c2-3.4,3.3-7.1,4.1-11C141.9,295.9,139.2,295.2,138.8,296.9z"/>
		<path class="st1" d="M158.2,305.3c-0.4-1.7-3.1-1-2.7,0.7c0.7,2.9-3.6,5-4.7,7.4c-1.3,2.9-4,5.8-5,8.6
			c-2.9,7.8-8.2,14.4-11.1,22.3c-0.6,1.7,2.1,2.4,2.7,0.7c2.9-7.8,7.7-16.5,12.3-23.4c2.5-3.8,3.7-7.7,7.1-10.8
			C158.5,309.1,158.7,307.5,158.2,305.3z"/>
		<path class="st1" d="M173.7,307.7c-4.5,6.8-8.7,13.8-13.5,20.5c-4.1,5.8-7.9,10.7-10.3,17.4c-0.6,1.7,2.1,2.4,2.7,0.7
			c2.6-7.2,7.1-12.7,11.5-18.8c4.2-6,8-12.3,12-18.4C177.1,307.6,174.7,306.2,173.7,307.7z"/>
		<path class="st1" d="M189.3,303.3c-6.8,6.9-11.1,16.1-16.9,23.9c-7,9.3-10.3,21.5-17.9,30.3c-1.2,1.3,0.8,3.3,2,2
			c6.5-7.6,10.8-17.8,15.7-26.4c3-5.2,6.7-9.9,10.1-14.9c3-4.5,5.1-9,9-12.9C192.5,303.9,190.5,302,189.3,303.3z"/>
		<path class="st1" d="M205.6,296.9c-5.6,21.7-16.4,41.5-23.7,62.6c-0.6,1.7,2.1,2.4,2.7,0.7c7.2-21.2,18-40.9,23.7-62.6
			C208.7,295.9,206,295.2,205.6,296.9z"/>
		<path class="st1" d="M229.6,290.7c-9,8.1-14.5,18.9-20.2,29.5c-5.8,10.8-11.8,21.6-12.2,34.1c-0.1,1.8,2.7,1.8,2.8,0
			c0.4-11.9,6.3-22.4,11.8-32.7c5.6-10.4,10.9-20.9,19.8-29C232.9,291.5,230.9,289.5,229.6,290.7z"/>
		<path class="st1" d="M258.5,264.9c-1.5,3.7-3.7,7-5.9,10.2c-2.2,3.2-3.5,6.5-5.2,10c-4.1,8.5-9.5,16.2-14,24.5
			c-4.5,8.3-9.3,16.5-14,24.7c-4.2,7.3-8.6,14.2-10.9,22.4c-0.5,1.7,2.2,2.5,2.7,0.7c2.5-8.7,7.5-16.2,11.9-24
			c4.7-8.2,9.4-16.4,13.9-24.7c4.5-8.3,9.8-16,13.9-24.5c3.1-6.4,7.7-12.1,10.4-18.7C261.8,264,259.1,263.3,258.5,264.9z"/>
		<path class="st1" d="M286.3,246.8c-1.5,4.9-4.2,9.1-7.1,13.4c-3.2,4.8-5.3,10.6-7.9,15.7c-5.5,10.8-11.5,21.5-17.5,32
			c-5.4,9.5-10.9,18.8-16.3,28.3c-1.9,3.3-8.4,10.2-6.9,14.3c0.6,1.7,3.3,0.9,2.7-0.7c-0.7-1.9,3.1-6.4,4.2-8
			c2.2-3.4,4-7.1,6.1-10.6c5.4-9.5,10.9-18.8,16.3-28.3c5.6-10,11.1-20,16.2-30.3c2.2-4.4,4-8.7,6.7-12.8c2.6-3.9,4.8-7.8,6.2-12.3
			C289.5,245.8,286.8,245.1,286.3,246.8z"/>
		<path class="st1" d="M368.8,141.8c-27.1,27.6-45.7,64.6-61.5,99.5c-3.6,7.9-7.2,15.4-9.8,23.6c-3,9.4-5.9,18.2-10.6,27.1
			c-4.4,8.3-9.6,16.3-13.5,24.8c-3.3,7-10.1,11.5-12.1,19.1c-0.5,1.7,2.2,2.5,2.7,0.7c2-7.6,9.4-13.3,12.7-20.5
			c3.7-7.8,8.5-15.1,12.6-22.7c3.7-6.9,6.8-13.8,9.1-21.2c2.9-9.4,6.3-18.1,10.3-27.1c8.1-18.3,17-36.6,27.5-53.6
			c10.3-16.7,20.8-33.5,34.6-47.6C372,142.5,370,140.5,368.8,141.8z"/>
		<path class="st1" d="M359.3,187.5c-3.4,2.5-5.2,6.9-7.3,10.5c-3.5,6.2-5.9,12.9-9.6,19c-7.2,11.8-12.5,24.5-19.9,36.3
			c-7.9,12.6-15.1,25.8-21.9,39c-6,11.8-12.5,23.5-13,37c-0.1,1.8,2.7,1.8,2.8,0c0.5-14.4,8.4-27.6,14.9-40.1
			c6.1-11.7,12.6-23.3,19.6-34.5c6.5-10.5,11.8-21.3,17.5-32.2c3-5.6,5.9-11,8.6-16.7c2.2-4.7,5.3-12.8,9.6-15.9
			C362.2,188.9,360.8,186.5,359.3,187.5z"/>
		<path class="st1" d="M361.6,221.4c-9.9,15.4-20.1,30.6-30.6,45.7c-5.6,8.1-10.6,16.7-14.4,25.8c-3.2,7.6-4.5,16.2-9.2,23.1
			c-1,1.5,1.4,2.9,2.4,1.4c3.9-5.8,5.5-12.7,7.8-19.3c3.4-9.9,8.8-18.9,14.5-27.6c5.6-8.4,11.9-16.2,17.1-24.9
			c4.7-7.8,10-15.2,14.9-22.9C365,221.3,362.6,219.9,361.6,221.4z"/>
		<path class="st1" d="M177.9,7.1c-3.9,5.2-7.7,10.4-11.1,15.8c-3.7,5.7-9.1,10.7-13.3,16.1c-3.8,4.8-7,10-10.4,15.1
			c-3.2,4.8-6.1,8.9-7.1,14.6c-0.3,1.8,2.4,2.5,2.7,0.7c0.9-5.3,3.9-9.6,6.8-13.9c4.1-6.3,8.2-12.4,12.9-18.3
			c3.5-4.3,7.8-8.1,10.7-12.9c3.4-5.5,7.3-10.7,11.1-15.8C181.4,7.1,179,5.7,177.9,7.1z"/>
		<path class="st1" d="M203.2,8.2c-7.4,7.7-13.3,16.8-19.7,25.3l-11,14.6c-2.8,3.8-5.4,6.3-5.9,11.1c-0.2,1.8,2.6,1.8,2.8,0
			c0.5-4.6,4.5-8.3,7.1-11.8c3.6-4.7,7-9.6,10.7-14.2c6.2-7.6,11.1-16,17.9-23.1C206.4,8.9,204.4,6.9,203.2,8.2z"/>
		<path class="st1" d="M218.5,18c-10.7,11.5-19.4,25.4-26.7,39.2c-0.7,1.4,1,2.8,2.2,1.7l1.4-1.4c0.5-0.5,0.5-1.1,0.2-1.5
			c6.8-12.7,15-25.5,24.8-36C221.7,18.6,219.7,16.6,218.5,18z"/>
		<path class="st1" d="M240.4,24.1c-0.4,1.8-4.1,3.8-5.3,5.2c-2,2.1-4,4.6-5.6,7c-5.3,7.9-11.2,15.2-17.9,22c-1.3,1.3,0.7,3.2,2,2
			c6.2-6.4,11.8-13.2,16.9-20.5c2.4-3.5,6.2-9.2,9.9-11.2c1.7-0.9,2.4-1.9,2.8-3.7C243.5,23.1,240.8,22.4,240.4,24.1z"/>
		<path class="st1" d="M258.8,27.7c-6.2,6.4-11.3,13.6-17.2,20.3c-4,4.5-10.2,9.3-11,15.5c-0.2,1.3,1.6,1.8,2.4,1l1.4-1.4
			c0.7-0.7,0.4-1.6-0.2-2.1c1.1-2.2,3.2-3.8,4.9-5.7c2.6-3,5.1-6.1,7.8-8.9c5-5.2,8.8-11.5,13.9-16.7
			C262.1,28.4,260.1,26.4,258.8,27.7z"/>
		<path class="st1" d="M271,33.9c-0.4,1.4-3.5,5.5-4.4,7.2c-1.4,2.5-3.5,4.6-5.1,7.1c-3.6,5.9-7.7,11.5-11.3,17.4
			c-0.6,1,0.4,2.5,1.6,2c1.3-0.5,2.2-0.9,2.4-2.4c0-0.2,0-0.4,0-0.6c3.2-5.1,6.6-10,9.8-15.1c3-4.8,8.1-9.4,9.7-14.9
			C274.2,32.9,271.5,32.2,271,33.9z"/>
		<path class="st1" d="M287.6,40.8c-0.2-1.8-2.9-1-2.7,0.7c0.7,5-4.7,9.5-8,12.6c-1.2,1.2-1.8,1.9-2.8,3.4
			c-1.7,2.6-5.3,9.6-8.7,10.1c-1.8,0.2-1.8,3,0,2.8c6.5-0.8,10.1-11,14.3-15.1C283.7,51.6,288.4,46.8,287.6,40.8z"/>
		<path class="st1" d="M296.2,47.5c-3.4,4.9-7.3,9.3-10.9,14c-3.8,4.9-6.8,10.4-11.1,14.9c-1.2,1.3,0.7,3.3,2,2c4-4.3,7-9.2,10.4-14
			c3.8-5.3,8.3-10.1,12.1-15.5C299.6,47.4,297.2,46,296.2,47.5z"/>
		<path class="st1" d="M303.1,55.8c-4.2,9.7-8.4,19.3-15.1,27.5c-1.1,1.4,0.8,3.4,2,2c6.8-8.5,11.3-18.2,15.5-28.1
			C306.3,55.6,303.9,54.2,303.1,55.8z"/>
		<path class="st1" d="M319.7,58.9c-0.9,6.4-5.8,9.5-8.8,14.7c-3.2,5.6-7.4,11.1-9.3,17.3c-0.5,1.7,2.2,2.4,2.7,0.7
			c2-6.5,6.6-12.4,10-18.2c1.5-2.6,4-4.1,5.5-6.8c1.2-2.3,2.3-4.4,2.6-6.9C322.6,57.9,320,57.2,319.7,58.9z"/>
		<path class="st1" d="M329.4,69c-0.4,2.8-2.9,5.5-4.3,8c-1.6,2.8-3.2,5.7-5.1,8.3c-4.2,5.6-8.2,11.2-10,18.1
			c-0.4,1.7,2.2,2.5,2.7,0.7c2.1-8.2,7.9-13.4,11.8-20.6c2.5-4.8,7-9.1,7.7-14.5C332.4,67.3,329.6,67.3,329.4,69z"/>
		<path class="st1" d="M341.2,83.2c-1.5-1-2.9,1.4-1.4,2.4c4.1,2.9-16.8,30.8-19.8,34c-1.2,1.3,0.7,3.3,2,2
			c5.9-6.2,10.6-14.1,15-21.4C338.9,96.9,346.1,86.6,341.2,83.2z"/>
		<path class="st1" d="M347.5,102.1c-1.4,7.8-8.7,13.4-12.2,20.1c-2,3.9-4.6,10.7-7.9,13.6c-1.9,1.7-3.1,2.8-3.6,5.3
			c-0.3,1.8,2.3,2.5,2.7,0.7c0.5-2.7,3.9-5,5.2-7.5c2.3-4.4,4.8-10.6,8.3-14.1c2-2,4-4.4,5.1-7c1.5-3.6,4.3-6.4,5-10.3
			C350.5,101.1,347.9,100.3,347.5,102.1z"/>
		<path class="st1" d="M356.3,115.4c-5.4,5.7-9.1,12.5-13,19.2c-5,8.6-12.1,16.8-19,23.9c-1.1,1.1,0,2.5,1.4,2.3
			c1.4-0.2,1.9-1,2.3-2.2c5-5.4,9.4-11.3,13.8-17.1c5.9-7.8,9.7-17,16.5-24.2C359.4,116,357.5,114.1,356.3,115.4z"/>
		<path class="st1" d="M147.2,114.6c-0.8,3.8-6.2,5.4-6.8,9.7c-0.5,3.8-3.8,8.1-5.4,11.6c-1.6,3.5-3,7.2-4.5,10.8
			c-0.7,1.7,2,2.4,2.7,0.7c1.6-4.1,3.3-8.2,5.2-12.2c1.3-2.8,3.8-5.8,4.6-8.7c1.3-4.6,6-6.7,7-11.1
			C150.2,113.6,147.5,112.9,147.2,114.6z"/>
		<path class="st1" d="M168.4,108.4c-3,3.1-5.4,6.6-8.4,9.8c-1.3,1.3-1.9,4.1-2.8,5.8c-1.3,2.4-2.9,4.7-4.4,7
			c-1,1.5,1.4,2.9,2.4,1.4c2.4-3.6,5.1-7.3,6.6-11.5c0.7-1.9,2.6-3.5,3.9-5.1c1.5-1.9,3-3.7,4.6-5.4
			C171.6,109.1,169.6,107.1,168.4,108.4z"/>
		<path class="st1" d="M183.5,107.3c-1.6,2.9-4.5,5-5.7,8.2c-1.9,5-6.6,9.6-9.6,14.1c-1,1.5,1.4,2.9,2.4,1.4c1.5-2.3,3-4.5,4.6-6.7
			c1.4-2,3.3-3.5,4.3-5.7c1.7-3.7,4.4-6.3,6.4-9.8C186.7,107.1,184.3,105.7,183.5,107.3z"/>
		<path class="st1" d="M200,110.8c0.2-1.8-2.6-1.8-2.8,0c-0.3,3-3.9,7.5-6,9.6c-2.6,2.7-4.4,6.1-6.4,9.2c-0.7,1,0.4,2.3,1.6,2
			c1.5-0.4,2.3-1.2,2.4-2.7c0-0.1,0-0.1,0-0.1c2.1-3.1,4.3-6,6.3-9C197,116.8,199.6,114.3,200,110.8z"/>
		<path class="st1" d="M212.7,112.9c-3,4.3-6.9,7.6-7.1,13.2c-0.1,1.8,2.7,1.8,2.8,0c0.2-4.9,4.1-8,6.8-11.8
			C216.1,112.8,213.7,111.4,212.7,112.9z"/>
		<path class="st1" d="M226.6,110.1c-1.4,3.2-2.2,6.2-4.3,9.1c-2.2,3-4.3,5.8-5.6,9.3c-0.3,0.9,0.5,1.8,1.3,1.8h1.4
			c1.5,0,1.8-2,0.7-2.6c1.2-2.5,2.9-4.8,4.6-7.1c2.2-3,2.8-5.7,4.3-9.1C229.7,109.9,227.3,108.4,226.6,110.1z"/>
		<path class="st1" d="M246.3,112.6c-2.5,2.5-5,5.1-7.3,8c-1.4,1.8-3.8,4.8-2.8,7.3c0.6,1.7,3.3,0.9,2.7-0.7c-0.7-2,2.7-5.4,3.8-6.6
			c1.8-2.1,3.7-4,5.6-5.9C249.5,113.3,247.6,111.3,246.3,112.6z"/>
		<path class="st1" d="M254.7,116.8c-4.1,4.1-7.2,9-10,14.2c-0.8,1.6,1.6,3,2.4,1.4c2.6-4.9,5.6-9.7,9.5-13.6
			C257.9,117.5,255.9,115.5,254.7,116.8z"/>
		<path class="st1" d="M261.3,122.9c-1.5,4.6-2.7,9.3-4.2,13.9c-0.6,1.7,2.1,2.4,2.7,0.7c1.5-4.6,2.7-9.3,4.2-13.9
			C264.5,122,261.8,121.2,261.3,122.9z"/>
		<path class="st1" d="M272.7,132.1c-1.8,1.7-3.8,3.3-5.4,5.2c-1.5,1.9-2.3,4.2-4.1,5.9c-3.5,3.2-7.5,5.6-9,10.4
			c-0.5,1.7,2.1,2.4,2.7,0.7c1.4-4.4,5.7-6.8,9-9.8c1.5-1.4,2.1-2.8,3-4.6c1.2-2.4,3.9-4.1,5.7-5.9
			C276,132.8,274.1,130.8,272.7,132.1z"/>
		<path class="st1" d="M276.7,143.5c-2.9,4.5-8,7.9-11.6,12c-3.8,4.5-7.7,8.6-12,12.6c-7.6,7-16.7,12.6-22.4,21.3
			c-0.7,1.1,0.4,2.4,1.6,2c1.4-0.4,2.3-0.8,3.4-1.8c0.8-0.7,0.4-1.6-0.3-2.1c6-7.4,14.6-13,21.5-19.3c4.2-3.9,7.9-8.2,11.6-12.6
			c3.3-3.9,7.7-6.6,10.5-10.8C280.1,143.4,277.7,142,276.7,143.5z"/>
		<path class="st1" d="M275.3,163c-3.6,4.9-8.4,9.6-12.7,14.1c-5.7,6.1-10.5,13-16.4,19c-1.3,1.3,0.7,3.3,2,2
			c5.8-6,10.8-12.7,16.4-19c4.5-5.1,9.1-9.4,13.1-14.7C278.8,162.9,276.4,161.5,275.3,163z"/>
		<path class="st1" d="M276.9,175.2c-9.4,9.5-18.1,19.6-25.3,30.9c-1,1.5,1.4,2.9,2.4,1.4c7.1-11.1,15.6-21,24.8-30.3
			C280.2,175.9,278.2,173.9,276.9,175.2z"/>
		<path class="st1" d="M115.3,165.8c-2.8,4.4-4.1,9.4-5.7,14.2c-0.6,1.7,2.1,2.4,2.7,0.7c1.5-4.6,2.8-9.4,5.4-13.6
			C118.7,165.6,116.2,164.2,115.3,165.8z"/>
		<path class="st1" d="M124.8,226.3c-0.3,6.8-3.9,12.7-4.2,19.5c-0.1,1.8,2.7,1.8,2.8,0c0.3-6.7,3.9-12.7,4.2-19.5
			C127.7,224.5,124.9,224.5,124.8,226.3z"/>
		<path class="st1" d="M133.2,236c-0.2,5.3-2.6,10-2.8,15.3c-0.1,1.8,2.7,1.8,2.8,0c0.2-5.2,2.6-10,2.8-15.3
			C136,234.3,133.2,234.3,133.2,236z"/>
		<path class="st1" d="M141.5,243v12.5c0,1.8,2.8,1.8,2.8,0V243C144.3,241.2,141.5,241.2,141.5,243z"/>
		<path class="st1" d="M158.2,245.4c-0.3-1.8-3-1-2.7,0.7c0.6,3-1.4,5.5-3,7.9c-1.4,2.2-2.5,4.4-2.6,7c-0.1,1.8,2.7,1.8,2.8,0
			C153,255.2,159.4,251.8,158.2,245.4z"/>
		<path class="st1" d="M169.4,248.6c-0.3,5.8-6.6,9.3-7,15.3c-0.1,1.8,2.7,1.8,2.8,0c0.3-5.8,6.6-9.3,7-15.3
			C172.2,246.8,169.5,246.8,169.4,248.6z"/>
		<path class="st1" d="M189.3,244.8c-2.3,2.6-3,5.5-4.4,8.6c-1.7,3.9-5.2,7.8-8.1,10.9c-1.2,1.3,0.7,3.3,2,2
			c2.6-2.7,4.8-5.8,6.9-8.9c2.3-3.3,3-7.6,5.6-10.6C192.4,245.4,190.4,243.5,189.3,244.8z"/>
		<path class="st1" d="M198.8,247.9c-1.5,2.9-3.5,5.5-4.9,8.5c-1.3,2.8-2.5,5.6-4.6,8c-1.2,1.3,0.7,3.3,2,2c2.1-2.3,3.4-4.9,4.7-7.7
			c1.5-3.3,3.6-6.1,5.2-9.3C202,247.7,199.6,246.3,198.8,247.9z"/>
		<path class="st1" d="M211.8,248.8c-2.7,1.7-3.4,4.1-3.5,7.2c-0.1,1.7-1.8,3.7-2.6,5.1c-1,1.6-1.9,3.2-2.8,4.9
			c-0.8,1.6,1.6,3,2.4,1.4c1.3-2.5,2.9-5,4.3-7.4c0.5-0.8,1.5-2,1.5-3c0-2.3-0.1-4.4,2.1-5.8C214.7,250.2,213.3,247.8,211.8,248.8z"
			/>
		<path class="st1" d="M220.9,252.7c-0.2,2.1-2.8,4.8-4.2,6.5c-1.5,1.8-1.6,4.6-2.6,6.7c-0.7,1.6,1.7,3,2.4,1.4
			c1.3-3,1.9-6.1,3.9-8.7c1.5-1.9,3-3.4,3.2-5.9C223.8,251,221,251,220.9,252.7z"/>
		<path class="st1" d="M233.8,254.5c-4,4.2-5.8,9.8-9.7,13.9c-1.2,1.3,0.7,3.3,2,2c4-4.2,5.8-9.8,9.8-13.9
			C237,255.2,235,253.2,233.8,254.5z"/>
		<path class="st1" d="M247.5,259c-0.7,0.8-1,1.7-1.4,2.7c-0.7,1.9-1.6,3.3-2.8,4.9c-2.2,3.1-4.8,6-7,9.1c-1,1.5,1.4,2.9,2.4,1.4
			c2-2.9,4.2-5.5,6.3-8.2c1-1.4,2.2-2.8,3-4.4c0.7-1.4,0.9-2.8,1.9-4.1C251,259,248.6,257.6,247.5,259z"/>
	</g>
	<g>
		<path class="st2" d="M182.8,367.7c-15.3,0-28.9-1.9-41.4-5.7c-39-11.9-73.1-32.5-96.1-58.1c-22-24.5-44.5-54.4-44.5-90.8
			c0-7.2-0.2-14.6-0.4-21.8c-0.8-29.9-1.5-60.9,10.5-88.7c7.8-18,17-30.5,31.7-43.1C54,49.8,66,42.5,78.8,34.8
			c2.6-1.6,5.2-3.1,7.8-4.7c13.2-8.1,29.8-15.6,49.5-22.3C152.1,2.3,167.1,0,187.9,0c2.3,0,3.5,1.2,4.2,2.2l0.5,0.7l0.8,0.1
			c9.1,0.6,18.1,1.4,27.2,4.3c3.1,1,6,1.4,8.8,1.8c3.7,0.6,7.3,1.1,10.9,2.8c4.2,2,8.6,3.9,12.9,5.6c3.9,1.6,7.9,3.3,11.7,5.1
			c6.6,3.1,13.6,5.5,20.4,7.8c10.8,3.7,22,7.5,31.4,14.4c22.2,16.2,41.9,46.8,50.3,77.9c5.8,21.5,4,44.6,2.3,67
			c-0.7,9.5-1.5,19.4-1.6,28.9c-0.4,29.2-6.7,68.7-34.4,91.7l-0.6,0.5c-26.5,21.9-51.4,42.7-86.4,49.3
			C227,363.8,204.6,367.7,182.8,367.7L182.8,367.7z M133.6,19.8c-1.2,0.4-2.4,0.8-3.6,1.3c-18.8,7.4-36.1,15.7-49.9,24.3l-0.4,0.2
			C62.9,56,41.9,69,31.3,85.8c-8.5,13.5-14.5,30-18.5,50.4c-2.8,14.8-2.3,30.2-1.9,45.2c0.2,5.6,0.4,11.4,0.4,17.1
			c0,22.1,2.1,40.6,12.6,59.5c18.8,34.1,50.4,63,89.1,81.5c22.2,10.6,42.2,15.9,64.9,17c2.1,0.1,4.2,0.2,6.2,0.2
			c11.5,0,22.3-1.5,33.8-3.1c4.5-0.6,8.9-1.2,13.5-1.8c11.7-1.4,23.3-4.3,34.7-8.7l2.4-0.9c6.9-2.6,15.4-5.9,20.9-9.9l5.2-3.8
			c13.4-9.9,27.3-20,38.2-31.9c16.9-18.4,21.8-44.6,23.3-58.7c1-9.9,1.1-19.9,1.1-28.5c0-4.1,0.5-8.2,0.9-12.2
			c0.4-3.9,0.9-7.8,0.9-11.9c0.1-5,0.4-10.1,0.7-15.5c0.9-15,1.9-30.6-2.9-44.4c-4.4-12.6-10.9-29-21.1-44
			c-7.8-11.3-15-19.7-22.1-25.7c-8.3-6.9-17.1-9.8-26.5-12.9l-2.7-0.9c-8.2-2.7-16.5-6.2-24.9-10.4c-3.7-1.8-7.5-3.3-11.3-4.8
			c-4.5-1.8-9.1-3.6-13.3-5.9c-2.3-1.3-5.2-1.4-8-1.6c-2-0.1-3.9-0.2-5.4-0.7c-1.3-0.4-2.5-0.8-3.7-1.2c-2.2-0.7-4.5-1.5-6.7-2.1
			c-2-0.5-4.1-0.8-6.7-0.8c-1.7,0-3.4,0.1-5.1,0.2c-1.6,0.1-3.2,0.2-4.8,0.2c-2.3,0-4.2-0.2-6-0.7c-4.2-1.2-8.5-1.8-13.1-1.8
			c-7.5,0-14.8,1.6-21.9,3.1c-2.8,0.6-5.7,1.2-8.6,1.8l-0.6,0.1l-0.4,0.5c-1,1.3-2.5,2.1-4.1,2.1h-1.9c-0.7,0-1.4-0.1-2-0.4
			l-0.6-0.2L133.6,19.8z"/>
		<path class="st2" d="M171.5,218.6c-7.4,0-20.3-1.6-22.9-12.1c-1.6-6.5,0.8-16.3,3.8-22.2c3.1-6.1,8.1-10.9,15.1-14.7
			c5.5-3,13.4-4.9,20.1-4.9c6.5,0,14.8,1.7,17.4,10c0.3,0.9,0.3,1.7,0.2,2.5l0,0.2l0,0.5c-0.8,15.8-1.7,33.6-19,38.8
			C181.9,217.9,176.6,218.6,171.5,218.6L171.5,218.6L171.5,218.6z M186.3,175.1c-2,0-3.9,0.3-5.9,0.9c-4.9,1.5-10.4,3.2-14.3,7.3
			c-1.9,1.9-8.6,13.3-7.5,19.2c0.4,2,1.5,2.9,2.4,3.4c3.2,1.6,7.3,2.4,11.5,2.4c7.1,0,13.4-2.3,17.2-6.3c4.1-4.3,4.5-14.7,4.8-21.6
			l0.1-3.5h-1.7c-0.1,0-0.9-0.4-1.3-0.6c-0.8-0.4-1.2-0.6-1.7-0.7C188.8,175.3,187.5,175.1,186.3,175.1L186.3,175.1z"/>
		<path class="st2" d="M131.3,263.9c-3.6,0-7.3-3.4-10.6-6.4c-1.4-1.3-2.7-2.5-4-3.5c-7.8-5.8-12.5-18.6-16-28l-0.9-2.5
			c-3.9-10.5-3.8-19.6-3.5-30.3c0-2.4,0.1-4.9,0.1-7.4c0-15.2,3.4-24.5,9.8-36.3c13.1-24.6,36.3-41.5,60.3-44.2
			c11.1-1.2,21.2-1.8,30.9-1.8c18.3,0,34.7,2.1,50.3,6.4c26.1,7.3,39.1,20.1,40.8,40.4c0.7,8.1-1.8,16.6-4.2,24.8
			c-0.8,2.7-1.6,5.3-2.2,7.9c-2.7,10.7-8.7,21.9-16,30c-4.5,4.9-10.4,7.3-18.3,7.3l0,0c-2.8,0-5.9-0.3-9.3-0.9
			c-8-1.4-8.6-8.9-8.6-18.6l0-1.5c0-11.5,3.5-23.3,9.3-31.5c0.6-0.9,1.8-2.3,3.1-3.9c5.5-6.5,9.6-11.8,9.2-15.2
			c-0.6-5.5-11.3-14.4-19.1-14.4c-3.9,0-6.7,2.1-7.9,6c-0.9,2.8-3.2,3.7-5.2,3.7c-2.2,0-4-1.2-4.8-2.9l-0.2-0.4l-0.3-0.3
			c-7.2-5.6-18.2-6.7-26.1-6.7c-13.8,0-28.8,3.7-36.5,8.9c-22.1,15.2-31.5,33.2-28.8,54.9c0.2,1.4,0.3,2.9,0.5,4.4
			c1,9.4,2.1,20,9.4,27.3c6.7,6.6,13.4,11.3,21,14.7c4.5,2,9.4,3,14.7,3c10.4,0,21.1-3.9,29.7-7l0.4-0.1l0.3-0.3
			c1-1,2.4-1.6,4.1-1.6c2.6,0,5.3,1.6,5.3,5v0.9c0,3.3-2.8,4.7-4,5.1c-1.9,0.7-3.6,1.4-5.4,2c-8.2,3.1-15.3,5.8-24.4,5.8
			c-0.7,0-1.4,0-2.1,0c-14.4-0.6-22.7-2.8-34.3-8.9c-27-14.2-27-50.9-25.8-66c1.8-22.1,21.1-44.8,44.8-52.8
			c10.3-3.5,22.2-5.5,32.6-5.5c11.1,0,20.4,2.1,27.6,6.3l1.1,0.6l0.9-0.9c3.4-3.4,8.1-5.1,13.6-5.1c11.4,0,23.7,7.4,28.1,16.9
			c2.2,4.8,3.4,12.4-3.7,20.8c-8.6,10.1-16.5,21-16.5,32.5c0,0.7,0,1.4,0,2.1c-0.1,4-0.2,8.1,2.4,10.7c1.5,1.6,3.7,2.3,6.8,2.3
			c7.6,0,12.8-8.8,14.7-12.6c3.5-7.1,5.6-13.9,7.8-21c1.1-3.5,2.2-7,3.5-10.7c4.9-13.8,0.8-23.1-6.8-32.9c-9.4-12-31-18.1-64.1-18.1
			l-10.4,0c-22.6,0-44.3,1.4-61.1,18.4c-9,9.2-17.6,18.4-23.3,31.1c-3.3,7.4-3.1,15.4-3,23.2c0.1,4.2,0.2,8.6-0.4,12.8
			c-1.7,13.9,6.1,28.2,12.4,39.7l0.3,0.5c2.2,4.1,5.6,6.7,8.8,9.2c1.7,1.3,3.3,2.6,4.7,4l0.3,0.3l0.3,0.1c2.5,0.9,3.4,3.8,3,6.1
			C136.1,260.7,135.2,263.9,131.3,263.9L131.3,263.9z"/>
		<path class="st2" d="M185.6,307.5c-10.9,0-19.3-0.4-26.5-1.3c-4.3-0.5-8.1-1.7-12.2-3c-2.8-0.9-5.7-1.8-8.7-2.4
			c-17.8-3.9-33.5-13-49.4-22.8c-9.8-6-16-21.9-20.9-34.6c-1.1-2.9-2.2-5.6-3.2-8c-6.9-16.2-10.8-29.6-8.7-46.3
			c0.6-4.5,0.9-9,1.3-13.4c0.8-9.5,1.5-18.4,4-27.5c8.4-30.2,36.2-57.7,60.1-71.6c22.5-13,46.2-19.4,72.5-19.4
			c6.4,0,13.1,0.4,19.8,1.1c17.7,2,36.1,7.7,53,16.5l0.8,0.4c13.4,7,28.6,14.9,39.2,25.7c8.3,8.4,17.2,22.7,17.2,34.1
			c0,3.8,1.2,6.9,2.4,9.9c1.1,2.7,2.1,5.3,2.1,8.3c0.1,4.5-0.1,9.2-0.4,13.6c-0.2,3.7-0.4,7.6-0.4,11.4c0,12.7-5.6,24.5-11,35.9
			c-1.6,3.3-3.2,6.7-4.6,10.1c-5.8,13.5-15,21.9-27,30.6c-5.9,4.2-13.8,9.1-22.9,9.5l-2.6,0.1c-2.9,0.1-6.3,0.3-9.5,0.3l0,0
			c-5,0-8.8-0.4-11.6-1.1c-1.9-0.5-3.9-1-5.9-1.5c-5.1-1.3-10.5-2.6-15.4-4.5c-3.6-1.4-6.5-3.5-9.5-5.8c-2.1-1.6-4.2-3.2-6.7-4.5
			c-3-1.7-2.7-4.4-2.4-5.5c0.6-2.2,2.5-4.4,5.1-4.4c0.9,0,1.8,0.2,2.6,0.7c2.3,1.3,4.4,2.8,6.5,4.2c4.3,3,8.7,6,14.6,7.4
			c6.1,1.4,11.7,2.1,17.7,2.9c1.5,0.2,3.1,0.4,4.6,0.6c2.1,0.3,4.2,0.4,6.1,0.4c9.2,0,16.8-2.9,25.5-9.6c1.3-1,2.6-1.9,4-2.9
			c4.9-3.5,9.9-7.1,12.8-12.3l0.8-1.4c6.9-12.6,15.5-28.4,17.8-42.9c0.8-5.3,0.9-11.2,1-16.8c0-2.1,0.1-4.1,0.1-6.1l0-0.8
			c0.1-3.8,0.3-7.4-1.9-11.1c-0.8-1.2-1.4-2.4-1.9-3.6c-0.3-1.7-0.6-3.3-0.8-5c-1.9-11.7-3.8-23.7-14.2-32.8
			c-12-10.5-27.2-19.9-42.8-26.5c-18-7.6-33.6-11.5-54-13.5c-2.1-0.2-4.3-0.3-6.5-0.3c-5.7,0-11.2,0.7-16.6,1.3
			c-4.7,0.6-9.6,1.2-14.7,1.3c-18,0.5-39.1,13.7-51.7,24.8l-1.7,1.5c-10.9,9.6-22.1,19.5-29.2,31.9c-8.4,14.6-11.8,27.9-14.3,43.4
			c-3.2,19.1-2.9,33.2,0.7,43.2l1.4,3.9c5.6,15.6,11.9,33.2,22.5,46c9.4,11.3,24.9,17.4,40,22.6c17,5.9,33.1,8.8,49.1,8.8
			c11.9,0,24.4-0.6,34.8-4.6l0.3-0.1l0.3-0.3c0.3-0.3,0.6-0.6,1-0.8c1.9-1.3,8.2-5.8,7-9.9c-1.1-3.6-6.8-3.6-8.7-3.6h-0.3
			c-2.7,0-5.3,0.1-8,0.1c-2.6,0-5.3,0.1-7.9,0.1c-4.1,0-8.3-0.2-12.4-0.5c-4.1-0.2-8.3-0.5-12.5-0.5c-17.1,0-36.7-6.1-49.9-15.5
			c-3.1-2.2-2.4-5.5-2-6.4c0.7-2.3,2.6-3.9,4.4-3.9c0.9,0,1.8,0.3,2.7,1c19.9,14.2,43.8,14.4,66.9,14.5c7.6,0.1,15.5,0.1,22.9,0.7
			c8.6,0.7,15.9,6.3,18.9,14.6c1.5,4.2-0.5,8-6.5,12.4l-0.3,0.2l-0.2,0.3c-0.4,0.7-0.9,1.3-1.6,1.8
			C220.9,303.8,205.9,307.5,185.6,307.5L185.6,307.5z"/>
	</g>
</g>
</svg>
